<!-- icon666.com - MILLIONS vector ICONS FREE --><svg clip-rule="evenodd" fill-rule="evenodd" image-rendering="optimizeQuality" shape-rendering="geometricPrecision" text-rendering="geometricPrecision" viewBox="0 0 173.397 173.397" xmlns="http://www.w3.org/2000/svg"><g id="Layer_x0020_1"><circle cx="86.699" cy="86.699" fill="#777878" r="84.667"></circle><g id="_411099896" fill="#fff"><path id="_411099968" d="m110.411 128.07-.9059-16.2263h-45.613l-.9059 16.2263zm-23.7124-45.9523c-4.0002 0-7.2431 4.9828-7.2431 11.1293 0 6.1466 3.2429 11.1292 7.2431 11.1292s7.2431-4.9826 7.2431-11.1292c0-6.1465-3.2429-11.1293-7.2431-11.1293zm22.6714 27.3069-1.8063-32.3551h-41.7302l-1.8063 32.3551zm-1.9414-34.7743-.9059-16.2265h-39.6483l-.9059 16.2265z"></path><path id="_411100064" d="m110.546 130.489h-10.5654v10.6382h10.5654zm-12.9845 0h-9.6534v10.6382h9.6534zm-12.0725 0h-9.6534v10.6382h9.6534zm-12.0725 0h-10.5653v10.6382h10.5653z"></path><path id="_411100376" d="m72.3308 46.3401-5.3213 9.6647h39.3785l-5.322-9.6647z"></path><rect id="_411100184" height="11.651" rx="1.316" width="37.447" x="67.975" y="32.27"></rect></g></g></svg>